<svg width="1846" height="1386" viewBox="0 0 1846 1386" fill="none" xmlns="http://www.w3.org/2000/svg">
<g filter="url(#filter0_f_225_898)">
<path d="M690.576 882.88C915.122 882.88 1097.15 748.816 1097.15 583.44C1097.15 418.064 915.122 284 690.576 284C466.03 284 284 418.064 284 583.44C284 748.816 466.03 882.88 690.576 882.88Z" fill="#ECF5D7"/>
<path d="M735.428 674.164C809.744 674.164 869.989 644.346 869.989 607.563C869.989 570.781 809.744 540.963 735.428 540.963C661.112 540.963 600.867 570.781 600.867 607.563C600.867 644.346 661.112 674.164 735.428 674.164Z" fill="#FFDA58"/>
<path d="M735.428 648.992C809.744 648.992 869.989 619.174 869.989 582.392C869.989 545.609 809.744 515.791 735.428 515.791C661.112 515.791 600.867 545.609 600.867 582.392C600.867 619.174 661.112 648.992 735.428 648.992Z" fill="#FFDD65"/>
</g>
<g clip-path="url(#clip0_225_898)">
<path opacity="0.1" d="M1647.38 1133.2C1638.53 1153.43 1618.27 1154.03 1605.63 1134.58C1592.98 1115.13 1587.65 1088.05 1583.4 1068.65C1573.43 1023.09 1570.66 975.588 1561.31 929.955C1551.72 883.205 1542.01 830.569 1519.66 786.768C1512.35 772.438 1488.03 772.178 1483.17 789.883C1478.21 807.983 1472.76 830.316 1472.78 849.337C1472.82 897.496 1471.83 941.279 1471.43 989.393C1470.85 1059.97 1477.57 1143.75 1442.14 1202.73C1435.88 1213.15 1417.27 1239.72 1400.96 1233.67C1391.04 1229.98 1383.24 1216.7 1379.18 1207.64C1366.78 1179.93 1365.68 1147.91 1364.28 1119.14C1362.17 1076.13 1362.44 1033.28 1361.82 990.399C1360.92 928.055 1358.69 865.636 1356.02 803.158C1355.23 784.897 1356.2 773.162 1348.77 739.223C1342.21 709.21 1293.92 712.954 1287.16 738.715C1270.5 802.188 1267.51 858.739 1266.31 889.678C1265.23 917.248 1263.17 947.481 1259.33 974.901C1256.59 994.428 1250.48 1050.59 1231.49 1066.13C1215.85 1078.91 1179.85 1069.54 1177.11 1058.37C1160.72 991.505 1189.15 922.685 1141.02 850.144" stroke="#35ACEE" stroke-width="70" stroke-linecap="round" stroke-linejoin="round"/>
</g>
<defs>
<filter id="filter0_f_225_898" x="0.410004" y="0.410004" width="1380.33" height="1166.06" filterUnits="userSpaceOnUse" color-interpolation-filters="sRGB">
<feFlood flood-opacity="0" result="BackgroundImageFix"/>
<feBlend mode="normal" in="SourceGraphic" in2="BackgroundImageFix" result="shape"/>
<feGaussianBlur stdDeviation="141.795" result="effect1_foregroundBlur_225_898"/>
</filter>
<clipPath id="clip0_225_898">
<rect width="562" height="629" fill="white" transform="translate(1845.88 996.693) rotate(136.293)"/>
</clipPath>
</defs>
</svg>
