<svg width="1758" height="1485" viewBox="0 0 1758 1485" fill="none" xmlns="http://www.w3.org/2000/svg">
<g filter="url(#filter0_f_225_1147)">
<path d="M691.115 1201.06C915.958 1201.06 1098.23 995.772 1098.23 742.532C1098.23 489.292 915.958 284 691.115 284C466.271 284 284 489.292 284 742.532C284 995.772 466.271 1201.06 691.115 1201.06Z" fill="#ECF5D7"/>
<path d="M736.026 881.458C810.44 881.458 870.765 835.797 870.765 779.472C870.765 723.147 810.44 677.487 736.026 677.487C661.611 677.487 601.287 723.147 601.287 779.472C601.287 835.797 661.611 881.458 736.026 881.458Z" fill="#FFDA58"/>
<path d="M736.026 842.912C810.44 842.912 870.765 797.252 870.765 740.927C870.765 684.602 810.44 638.941 736.026 638.941C661.611 638.941 601.287 684.602 601.287 740.927C601.287 797.252 661.611 842.912 736.026 842.912Z" fill="#FFDD65"/>
</g>
<path opacity="0.1" d="M1649.19 1102.9C1640.32 1122.41 1620.04 1122.99 1607.38 1104.23C1594.71 1085.47 1589.38 1059.36 1585.12 1040.65C1575.14 996.716 1572.36 950.909 1563 906.905C1553.4 861.823 1543.67 811.065 1521.29 768.827C1513.97 755.009 1489.62 754.758 1484.76 771.832C1479.8 789.285 1474.34 810.821 1474.35 829.163C1474.39 875.604 1473.4 917.825 1473.01 964.222C1472.42 1032.28 1479.15 1113.07 1443.67 1169.94C1437.4 1180 1418.77 1205.62 1402.44 1199.78C1392.51 1196.23 1384.69 1183.42 1380.63 1174.68C1368.22 1147.96 1367.12 1117.09 1365.71 1089.33C1363.6 1047.86 1363.87 1006.54 1363.25 965.192C1362.34 905.072 1360.11 844.881 1357.44 784.632C1356.65 767.023 1357.62 755.707 1350.19 722.979C1343.61 694.037 1295.26 697.647 1288.49 722.489C1271.81 783.697 1268.82 838.23 1267.61 868.065C1266.53 894.651 1264.47 923.805 1260.62 950.247C1257.88 969.077 1251.76 1023.24 1232.74 1038.22C1217.09 1050.55 1181.04 1041.51 1178.3 1030.74C1161.89 966.258 1190.35 899.894 1142.16 829.942" stroke="#35ACEE" stroke-width="70" stroke-linecap="round" stroke-linejoin="round"/>
<defs>
<filter id="filter0_f_225_1147" x="0.410004" y="0.410004" width="1381.41" height="1484.24" filterUnits="userSpaceOnUse" color-interpolation-filters="sRGB">
<feFlood flood-opacity="0" result="BackgroundImageFix"/>
<feBlend mode="normal" in="SourceGraphic" in2="BackgroundImageFix" result="shape"/>
<feGaussianBlur stdDeviation="141.795" result="effect1_foregroundBlur_225_1147"/>
</filter>
</defs>
</svg>
