<svg width="70" height="71" viewBox="0 0 70 71" fill="none" xmlns="http://www.w3.org/2000/svg">
<rect y="0.290039" width="70" height="70" rx="12" fill="white"/>
<path d="M35.3761 50.3924V52.29H22.3525C19.9503 52.29 18 50.3428 18 47.9375V18.29H28.7947V48.7517C28.7947 49.6587 29.5284 50.3924 30.4354 50.3924H35.3761Z" fill="#7055A2"/>
<path d="M52.0462 36.4958V41.7182H52.0029C50.4674 41.7182 49.3282 42.1981 48.5357 43.1206C47.7927 43.9998 47.3965 45.885 47.3531 48.8229C47.3531 50.7546 45.8177 52.29 43.8891 52.29H37.3943V50.4048H39.7192C39.7481 50.4337 39.778 50.4337 39.8089 50.4048H40.1587C40.4652 50.3181 40.7284 50.1416 40.8615 49.8352C40.9048 49.7485 40.9048 49.6154 40.9048 49.5287C40.9481 49.4853 40.9481 49.442 40.9481 49.3987V49.1355C40.9915 48.3028 40.9915 47.6032 41.0379 46.9407V46.8973C41.0503 46.5042 41.0596 46.1389 41.0751 45.8046C40.88 45.7984 40.6819 45.786 40.4869 45.7612C38.4933 45.5569 36.673 44.6684 35.2954 43.2413L36.7968 41.1548C37.7936 42.3529 39.196 43.0989 40.7438 43.2599C40.9234 43.2785 41.0998 43.2909 41.2763 43.2909C41.4527 42.4953 41.7097 41.7368 42.1338 41.0217C42.5703 40.2757 43.273 39.6627 44.1924 39.09C43.1863 38.4337 42.5269 37.8177 42.1338 37.1583C41.7375 36.5453 41.4744 35.8426 41.3011 35.0966C41.171 34.3969 41.0813 32.9915 40.9946 30.9731C40.9512 28.9547 40.8646 27.8124 40.7748 27.5059C40.685 27.2428 40.4683 26.9797 40.1154 26.763C39.7656 26.5432 36.7473 26.4565 35.2954 26.4565V18.29H38.5366C40.8181 18.29 42.5703 18.5532 43.8457 19.0794C45.0747 19.6057 45.9539 20.4849 46.5204 21.6674C47.09 22.85 47.3531 24.7817 47.3531 27.4564C47.3531 30.5304 47.4832 32.459 47.706 33.2484C47.9258 34.0378 48.319 34.7839 48.8886 35.4433C49.4149 36.0996 50.4674 36.4494 52.0029 36.4958H52.0462Z" fill="#F05822"/>
<path d="M37.3547 33.7376C38.4934 33.7376 39.4164 32.8145 39.4164 31.6758C39.4164 30.5372 38.4934 29.6141 37.3547 29.6141C36.216 29.6141 35.293 30.5372 35.293 31.6758C35.293 32.8145 36.216 33.7376 37.3547 33.7376Z" fill="#FDBC12"/>
</svg>
