<svg width="70" height="71" viewBox="0 0 70 71" fill="none" xmlns="http://www.w3.org/2000/svg">
<rect y="0.290039" width="70" height="70" rx="12" fill="white"/>
<path d="M35.3761 50.3924V52.29H22.3525C19.9503 52.29 18 50.3428 18 47.9375V18.29H28.7947V48.7517C28.7947 49.6587 29.5284 50.3924 30.4354 50.3924H35.3761Z" fill="#7055A2"/>
<path d="M52.0463 36.4958V41.7182H52.003C50.4675 41.7182 49.3283 42.1981 48.5358 43.1206C47.7928 43.9998 47.3966 45.885 47.3533 48.8229C47.3533 50.7546 45.8178 52.29 43.8892 52.29H37.3944V50.4048H39.7193C39.7482 50.4337 39.7781 50.4337 39.8091 50.4048H40.1589C40.4653 50.3181 40.7285 50.1416 40.8616 49.8352C40.9049 49.7485 40.9049 49.6154 40.9049 49.5287C40.9483 49.4853 40.9483 49.442 40.9483 49.3987V49.1355C40.9916 48.3028 40.9916 47.6032 41.038 46.9407V46.8973C41.0504 46.5042 41.0597 46.1389 41.0752 45.8046C40.8802 45.7984 40.682 45.786 40.487 45.7612C38.4934 45.5569 36.6731 44.6684 35.2955 43.2413L36.7969 41.1548C37.7938 42.3529 39.1961 43.0989 40.744 43.2599C40.9235 43.2785 41.1 43.2909 41.2764 43.2909C41.4529 42.4953 41.7098 41.7368 42.1339 41.0217C42.5704 40.2757 43.2731 39.6627 44.1926 39.09C43.1865 38.4337 42.5271 37.8177 42.1339 37.1583C41.7377 36.5453 41.4745 35.8426 41.3012 35.0966C41.1712 34.3969 41.0814 32.9915 40.9947 30.9731C40.9514 28.9547 40.8647 27.8124 40.7749 27.5059C40.6851 27.2428 40.4684 26.9797 40.1155 26.763C39.7657 26.5432 36.7474 26.4565 35.2955 26.4565V18.29H38.5367C40.8182 18.29 42.5704 18.5532 43.8458 19.0794C45.0748 19.6057 45.954 20.4849 46.5205 21.6674C47.0901 22.85 47.3533 24.7817 47.3533 27.4564C47.3533 30.5304 47.4833 32.459 47.7062 33.2484C47.926 34.0378 48.3191 34.7839 48.8887 35.4433C49.415 36.0996 50.4675 36.4494 52.003 36.4958H52.0463Z" fill="#F05822"/>
<path d="M37.3546 33.7376C38.4932 33.7376 39.4163 32.8145 39.4163 31.6758C39.4163 30.5372 38.4932 29.6141 37.3546 29.6141C36.2159 29.6141 35.2928 30.5372 35.2928 31.6758C35.2928 32.8145 36.2159 33.7376 37.3546 33.7376Z" fill="#FDBC12"/>
</svg>
