<svg width="25" height="25" viewBox="0 0 25 25" fill="none" xmlns="http://www.w3.org/2000/svg">
<path d="M10.5 21.4606C7.07143 22.6179 4.21429 21.4606 2.5 17.8931" stroke="white" stroke-width="2" stroke-linecap="round" stroke-linejoin="round"/>
<path d="M10.5 22.8931V19.651C10.5 19.0527 10.6839 18.5327 10.9804 18.063C11.1838 17.7407 11.0445 17.2835 10.6771 17.1825C7.63394 16.3459 5.5 15.0008 5.5 10.5391C5.5 9.37917 5.88005 8.28862 6.54811 7.33946C6.71437 7.10324 6.79749 6.98514 6.81748 6.87816C6.83746 6.77119 6.80272 6.63158 6.73322 6.35238C6.45038 5.21598 6.46871 4.00925 6.89322 2.92129C6.89322 2.92129 7.77042 2.63548 9.76698 3.88275C10.2228 4.16753 10.4507 4.30992 10.6515 4.34177C10.8522 4.37362 11.1206 4.3069 11.6573 4.17347C12.3913 3.99101 13.1476 3.89306 14 3.89306C14.8524 3.89306 15.6087 3.99101 16.3427 4.17347C16.8794 4.3069 17.1478 4.37362 17.3485 4.34177C17.5493 4.30992 17.7772 4.16753 18.233 3.88275C20.2296 2.63548 21.1068 2.92129 21.1068 2.92129C21.5313 4.00925 21.5496 5.21598 21.2668 6.35238C21.1973 6.63158 21.1625 6.77119 21.1825 6.87816C21.2025 6.98513 21.2856 7.10325 21.4519 7.33946C22.1199 8.28862 22.5 9.37917 22.5 10.5391C22.5 15.0008 20.3661 16.3459 17.3229 17.1825C16.9555 17.2835 16.8162 17.7407 17.0196 18.063C17.3161 18.5327 17.5 19.0527 17.5 19.651V22.8931" stroke="white" stroke-width="2" stroke-linecap="round" stroke-linejoin="round"/>
</svg>
