<svg width="29" height="29" viewBox="0 0 29 29" fill="none" xmlns="http://www.w3.org/2000/svg">
<path d="M12.2199 24.7855C8.21993 26.1357 4.8866 24.7855 2.8866 20.6234" stroke="#212121" stroke-width="2" stroke-linecap="round" stroke-linejoin="round"/>
<path d="M12.2199 26.4567V22.6743C12.2199 21.9763 12.4345 21.3696 12.7804 20.8216C13.0177 20.4456 12.8552 19.9122 12.4265 19.7944C8.87619 18.8183 6.3866 17.2491 6.3866 12.0438C6.3866 10.6905 6.82999 9.41823 7.60939 8.31088C7.80336 8.03529 7.90034 7.8975 7.92366 7.77269C7.94697 7.6479 7.90644 7.48502 7.82535 7.15928C7.49537 5.83348 7.51676 4.42563 8.01202 3.15635C8.01202 3.15635 9.03542 2.8229 11.3647 4.27805C11.8966 4.61029 12.1625 4.77641 12.3967 4.81357C12.6308 4.85073 12.944 4.77289 13.5701 4.61722C14.4264 4.40435 15.3088 4.29008 16.3033 4.29008C17.2977 4.29008 18.1801 4.40435 19.0364 4.61722C19.6626 4.77289 19.9757 4.85073 20.2098 4.81357C20.4441 4.77641 20.71 4.61029 21.2418 4.27805C23.5711 2.8229 24.5945 3.15635 24.5945 3.15635C25.0898 4.42563 25.1111 5.83348 24.7812 7.15928C24.7001 7.48502 24.6595 7.6479 24.6828 7.77269C24.7062 7.89749 24.8031 8.0353 24.9971 8.31088C25.7765 9.41823 26.2199 10.6905 26.2199 12.0438C26.2199 17.2491 23.7304 18.8183 20.18 19.7944C19.7513 19.9122 19.5888 20.4456 19.8261 20.8216C20.172 21.3696 20.3866 21.9763 20.3866 22.6743V26.4567" stroke="#212121" stroke-width="2" stroke-linecap="round" stroke-linejoin="round"/>
</svg>
