<svg width="18" height="19" viewBox="0 0 18 19" fill="none" xmlns="http://www.w3.org/2000/svg">
<path d="M7.5 15.6046C4.92857 16.4726 2.78572 15.6046 1.5 12.929" stroke="#212121" stroke-width="2" stroke-linecap="round" stroke-linejoin="round"/>
<path d="M7.5 16.679V14.2474C7.5 13.7987 7.63793 13.4087 7.8603 13.0564C8.01285 12.8147 7.90838 12.4718 7.63283 12.396C5.35046 11.7686 3.75 10.7597 3.75 7.4135C3.75 6.54354 4.03504 5.72562 4.53608 5.01375C4.66078 4.83659 4.72312 4.74801 4.73811 4.66778C4.7531 4.58755 4.72704 4.48284 4.67492 4.27344C4.46279 3.42114 4.47653 2.5161 4.79491 1.70013C4.79491 1.70013 5.45282 1.48577 6.95024 2.42122C7.29212 2.63481 7.46306 2.7416 7.61362 2.76549C7.76415 2.78937 7.96545 2.73933 8.36797 2.63926C8.91848 2.50242 9.4857 2.42895 10.125 2.42895C10.7643 2.42895 11.3315 2.50242 11.882 2.63926C12.2846 2.73933 12.4858 2.78937 12.6364 2.76549C12.787 2.7416 12.9579 2.63481 13.2997 2.42122C14.7972 1.48577 15.4551 1.70013 15.4551 1.70013C15.7735 2.5161 15.7872 3.42114 15.5751 4.27344C15.523 4.48284 15.4969 4.58755 15.5119 4.66778C15.5269 4.74801 15.5892 4.8366 15.7139 5.01375C16.2149 5.72562 16.5 6.54354 16.5 7.4135C16.5 10.7597 14.8996 11.7686 12.6172 12.396C12.3416 12.4718 12.2371 12.8147 12.3897 13.0564C12.6121 13.4087 12.75 13.7987 12.75 14.2474V16.679" stroke="#212121" stroke-width="1.5" stroke-linecap="round" stroke-linejoin="round"/>
</svg>
