<svg width="29" height="29" viewBox="0 0 29 29" fill="none" xmlns="http://www.w3.org/2000/svg">
<path d="M12.2199 24.7855C8.21993 26.1357 4.8866 24.7855 2.8866 20.6234" stroke="#212121" stroke-width="2" stroke-linecap="round" stroke-linejoin="round"/>
<path d="M12.2199 26.4566V22.6742C12.2199 21.9762 12.4345 21.3695 12.7804 20.8215C13.0177 20.4455 12.8552 19.9121 12.4265 19.7943C8.87619 18.8182 6.3866 17.2489 6.3866 12.0437C6.3866 10.6904 6.82999 9.41811 7.60939 8.31076C7.80336 8.03517 7.90034 7.89738 7.92366 7.77257C7.94697 7.64777 7.90644 7.4849 7.82535 7.15916C7.49537 5.83336 7.51676 4.42551 8.01202 3.15622C8.01202 3.15622 9.03542 2.82278 11.3647 4.27793C11.8966 4.61017 12.1625 4.77629 12.3967 4.81345C12.6308 4.85061 12.944 4.77277 13.5701 4.6171C14.4264 4.40423 15.3088 4.28996 16.3033 4.28996C17.2977 4.28996 18.1801 4.40423 19.0364 4.6171C19.6626 4.77277 19.9757 4.85061 20.2098 4.81345C20.4441 4.77629 20.71 4.61017 21.2418 4.27793C23.5711 2.82278 24.5945 3.15622 24.5945 3.15622C25.0898 4.42551 25.1111 5.83336 24.7812 7.15916C24.7001 7.4849 24.6595 7.64777 24.6828 7.77257C24.7062 7.89737 24.8031 8.03518 24.9971 8.31076C25.7765 9.41811 26.2199 10.6904 26.2199 12.0437C26.2199 17.2489 23.7304 18.8182 20.18 19.7943C19.7513 19.9121 19.5888 20.4455 19.8261 20.8215C20.172 21.3695 20.3866 21.9762 20.3866 22.6742V26.4566" stroke="#212121" stroke-width="2" stroke-linecap="round" stroke-linejoin="round"/>
</svg>
