<svg width="22" height="20" viewBox="0 0 22 20" fill="none" xmlns="http://www.w3.org/2000/svg">
<path d="M1 6C1 7.34178 9.0949 11 10.9861 11C12.8772 11 20.9722 7.34178 20.9722 6C20.9722 4.65822 12.8772 1 10.9861 1C9.0949 1 1 4.65822 1 6Z" stroke="#212121" stroke-width="1.5" stroke-linecap="round" stroke-linejoin="round"/>
<path d="M4.99414 9L5.23925 14.6299C5.24415 14.7426 5.25634 14.8555 5.28901 14.9635C5.38998 15.2973 5.57608 15.6006 5.86 15.8044C8.08146 17.3985 13.8901 17.3985 16.1115 15.8044C16.3956 15.6006 16.5816 15.2973 16.6826 14.9635C16.7152 14.8555 16.7274 14.7426 16.7324 14.6299L16.9774 9" stroke="#212121" stroke-width="1.5" stroke-linecap="round" stroke-linejoin="round"/>
<path d="M19.4734 7.5V14.5M19.4734 14.5C18.6814 15.9463 18.3312 16.7212 17.9755 18C17.8983 18.455 17.9596 18.6843 18.2732 18.8879C18.4006 18.9706 18.5537 19 18.7055 19H20.2259C20.3876 19 20.5507 18.9663 20.6838 18.8745C20.9753 18.6735 21.0503 18.453 20.9713 18C20.6595 16.8126 20.2623 16.0008 19.4734 14.5Z" stroke="#212121" stroke-width="1.5" stroke-linecap="round" stroke-linejoin="round"/>
</svg>
