<svg width="29" height="29" viewBox="0 0 29 29" fill="none" xmlns="http://www.w3.org/2000/svg">
<path d="M22.8166 7.1604C21.5467 6.15755 19.1041 4.50633 15.6158 3.35992C15.0798 3.18377 14.8119 3.0957 14.4635 3.0957C14.1151 3.0957 13.8471 3.18377 13.3112 3.35992C9.82278 4.50633 7.38036 6.15755 6.11033 7.1604C5.66464 7.51234 5.44179 7.68831 5.2268 8.06588C5.0118 8.44345 4.96949 8.7525 4.88485 9.37061C4.7298 10.503 4.54682 12.2483 4.54682 14.179C4.54682 16.1098 4.7298 17.8551 4.88485 18.9875C4.96949 19.6056 5.0118 19.9146 5.2268 20.2921C5.44179 20.6698 5.66464 20.8457 6.11033 21.1977C7.38036 22.2006 9.82278 23.8518 13.3112 24.9981C13.8471 25.1743 14.1151 25.2624 14.4635 25.2624C14.8119 25.2624 15.0798 25.1743 15.6158 24.9981C19.1041 23.8518 21.5467 22.2006 22.8166 21.1977C23.2624 20.8457 23.4852 20.6698 23.7002 20.2921C23.9151 19.9146 23.9575 19.6056 24.0422 18.9875C24.1972 17.8551 24.3802 16.1098 24.3802 14.179C24.3802 12.2483 24.1972 10.503 24.0422 9.37061C23.9575 8.7525 23.9151 8.44345 23.7002 8.06588C23.4852 7.68831 23.2624 7.51234 22.8166 7.1604Z" stroke="#212121" stroke-width="1.5" stroke-linecap="round" stroke-linejoin="round"/>
<path d="M11.5468 9.51221V17.6789" stroke="#212121" stroke-width="1.5" stroke-linecap="round" stroke-linejoin="round"/>
<path d="M11.5468 14.179H17.3802" stroke="#212121" stroke-width="1.5" stroke-linecap="round" stroke-linejoin="round"/>
<path d="M18.5468 18.8457H16.2135L17.3802 20.0124L18.5468 18.8457Z" stroke="#212121" stroke-width="1.5" stroke-linecap="round" stroke-linejoin="round"/>
<path d="M10.3802 9.51237H12.7135L11.5468 8.3457L10.3802 9.51237Z" stroke="#212121" stroke-width="1.5" stroke-linecap="round" stroke-linejoin="round"/>
<path d="M17.3801 10.679V18.8456" stroke="#212121" stroke-width="1.5" stroke-linecap="round" stroke-linejoin="round"/>
</svg>
