<svg width="29" height="29" viewBox="0 0 29 29" fill="none" xmlns="http://www.w3.org/2000/svg">
<path d="M22.8 7.77137C21.5301 6.76851 19.0876 5.11729 15.5993 3.97088C15.0633 3.79474 14.7953 3.70667 14.4469 3.70667C14.0986 3.70667 13.8306 3.79474 13.2946 3.97088C9.80623 5.11729 7.36381 6.76851 6.09378 7.77137C5.64809 8.1233 5.42525 8.29927 5.21025 8.67684C4.99526 9.05441 4.95295 9.36346 4.8683 9.98157C4.71325 11.1139 4.53027 12.8593 4.53027 14.79C4.53027 16.7207 4.71325 18.466 4.8683 19.5984C4.95295 20.2165 4.99526 20.5256 5.21025 20.9031C5.42525 21.2807 5.64809 21.4567 6.09378 21.8087C7.36381 22.8115 9.80623 24.4627 13.2946 25.6091C13.8306 25.7853 14.0986 25.8733 14.4469 25.8733C14.7953 25.8733 15.0633 25.7853 15.5993 25.6091C19.0876 24.4627 21.5301 22.8115 22.8 21.8087C23.2458 21.4567 23.4687 21.2807 23.6837 20.9031C23.8986 20.5256 23.9409 20.2165 24.0256 19.5984C24.1807 18.466 24.3636 16.7207 24.3636 14.79C24.3636 12.8593 24.1807 11.1139 24.0256 9.98157C23.9409 9.36346 23.8986 9.05441 23.6837 8.67684C23.4687 8.29927 23.2458 8.1233 22.8 7.77137Z" stroke="#212121" stroke-width="1.5" stroke-linecap="round" stroke-linejoin="round"/>
<path d="M11.5303 10.1234V18.2901" stroke="#212121" stroke-width="1.5" stroke-linecap="round" stroke-linejoin="round"/>
<path d="M11.5303 14.79H17.3636" stroke="#212121" stroke-width="1.5" stroke-linecap="round" stroke-linejoin="round"/>
<path d="M18.5302 19.4567H16.1969L17.3636 20.6233L18.5302 19.4567Z" stroke="#212121" stroke-width="1.5" stroke-linecap="round" stroke-linejoin="round"/>
<path d="M10.3635 10.1233H12.6969L11.5302 8.95667L10.3635 10.1233Z" stroke="#212121" stroke-width="1.5" stroke-linecap="round" stroke-linejoin="round"/>
<path d="M17.3635 11.29V19.4567" stroke="#212121" stroke-width="1.5" stroke-linecap="round" stroke-linejoin="round"/>
</svg>
