<svg width="25" height="25" viewBox="0 0 25 25" fill="none" xmlns="http://www.w3.org/2000/svg">
<path d="M19.6598 6.8771C18.5713 6.01751 16.4777 4.60218 13.4877 3.61954C13.0283 3.46856 12.7986 3.39307 12.5 3.39307C12.2014 3.39307 11.9717 3.46856 11.5123 3.61954C8.52225 4.60218 6.42875 6.01751 5.34015 6.8771C4.95813 7.17876 4.76712 7.32959 4.58284 7.65322C4.39856 7.97685 4.36229 8.24175 4.28974 8.77156C4.15684 9.74214 4 11.2382 4 12.8931C4 14.548 4.15684 16.044 4.28974 17.0146C4.36229 17.5444 4.39856 17.8093 4.58284 18.1329C4.76712 18.4566 4.95813 18.6074 5.34015 18.9091C6.42875 19.7687 8.52225 21.184 11.5123 22.1666C11.9717 22.3176 12.2014 22.3931 12.5 22.3931C12.7986 22.3931 13.0283 22.3176 13.4877 22.1666C16.4777 21.184 18.5713 19.7687 19.6598 18.9091C20.0419 18.6074 20.2329 18.4566 20.4172 18.1329C20.6014 17.8093 20.6377 17.5444 20.7103 17.0146C20.8432 16.044 21 14.548 21 12.8931C21 11.2382 20.8432 9.74214 20.7103 8.77156C20.6377 8.24175 20.6014 7.97685 20.4172 7.65322C20.2329 7.32959 20.0419 7.17876 19.6598 6.8771Z" stroke="white" stroke-width="1.5" stroke-linecap="round" stroke-linejoin="round"/>
<path d="M10 8.89307V15.8931" stroke="white" stroke-width="1.5" stroke-linecap="round" stroke-linejoin="round"/>
<path d="M10 12.8931H15" stroke="white" stroke-width="1.5" stroke-linecap="round" stroke-linejoin="round"/>
<path d="M16 16.8931H14L15 17.8931L16 16.8931Z" stroke="white" stroke-width="1.5" stroke-linecap="round" stroke-linejoin="round"/>
<path d="M9 8.89307H11L10 7.89307L9 8.89307Z" stroke="white" stroke-width="1.5" stroke-linecap="round" stroke-linejoin="round"/>
<path d="M15 9.89307V16.8931" stroke="white" stroke-width="1.5" stroke-linecap="round" stroke-linejoin="round"/>
</svg>
