<svg width="29" height="29" viewBox="0 0 29 29" fill="none" xmlns="http://www.w3.org/2000/svg">
<path d="M22.8 7.77149C21.5301 6.76863 19.0876 5.11742 15.5993 3.971C15.0633 3.79486 14.7953 3.70679 14.4469 3.70679C14.0986 3.70679 13.8306 3.79486 13.2946 3.971C9.80623 5.11742 7.36381 6.76863 6.09378 7.77149C5.64809 8.12343 5.42525 8.29939 5.21025 8.67696C4.99526 9.05453 4.95295 9.36358 4.8683 9.98169C4.71325 11.114 4.53027 12.8594 4.53027 14.7901C4.53027 16.7208 4.71325 18.4662 4.8683 19.5985C4.95295 20.2166 4.99526 20.5257 5.21025 20.9032C5.42525 21.2809 5.64809 21.4568 6.09378 21.8088C7.36381 22.8117 9.80623 24.4628 13.2946 25.6092C13.8306 25.7854 14.0986 25.8735 14.4469 25.8735C14.7953 25.8735 15.0633 25.7854 15.5993 25.6092C19.0876 24.4628 21.5301 22.8117 22.8 21.8088C23.2458 21.4568 23.4687 21.2809 23.6837 20.9032C23.8986 20.5257 23.9409 20.2166 24.0256 19.5985C24.1807 18.4662 24.3636 16.7208 24.3636 14.7901C24.3636 12.8594 24.1807 11.114 24.0256 9.98169C23.9409 9.36358 23.8986 9.05453 23.6837 8.67696C23.4687 8.29939 23.2458 8.12343 22.8 7.77149Z" stroke="#212121" stroke-width="1.5" stroke-linecap="round" stroke-linejoin="round"/>
<path d="M11.5303 10.1234V18.2901" stroke="#212121" stroke-width="1.5" stroke-linecap="round" stroke-linejoin="round"/>
<path d="M11.5303 14.79H17.3636" stroke="#212121" stroke-width="1.5" stroke-linecap="round" stroke-linejoin="round"/>
<path d="M18.5304 19.4567H16.197L17.3637 20.6233L18.5304 19.4567Z" stroke="#212121" stroke-width="1.5" stroke-linecap="round" stroke-linejoin="round"/>
<path d="M10.3638 10.1233H12.6971L11.5304 8.95667L10.3638 10.1233Z" stroke="#212121" stroke-width="1.5" stroke-linecap="round" stroke-linejoin="round"/>
<path d="M17.3638 11.29V19.4567" stroke="#212121" stroke-width="1.5" stroke-linecap="round" stroke-linejoin="round"/>
</svg>
