<svg width="25" height="25" viewBox="0 0 25 25" fill="none" xmlns="http://www.w3.org/2000/svg">
<path d="M5 10.3931H4.5C3.55719 10.3931 3.08579 10.3931 2.79289 10.686C2.5 10.9789 2.5 11.4503 2.5 12.3931V20.8931C2.5 21.8359 2.5 22.3073 2.79289 22.6002C3.08579 22.8931 3.55719 22.8931 4.5 22.8931H5C5.94281 22.8931 6.41421 22.8931 6.70711 22.6002C7 22.3073 7 21.8359 7 20.8931V12.3931C7 11.4503 7 10.9789 6.70711 10.686C6.41421 10.3931 5.94281 10.3931 5 10.3931Z" stroke="white" stroke-width="1.5"/>
<path d="M7 5.14307C7 6.38571 5.99264 7.39307 4.75 7.39307C3.50736 7.39307 2.5 6.38571 2.5 5.14307C2.5 3.90043 3.50736 2.89307 4.75 2.89307C5.99264 2.89307 7 3.90043 7 5.14307Z" stroke="white" stroke-width="1.5"/>
<path d="M12.826 10.3931H12C11.0572 10.3931 10.5858 10.3931 10.2929 10.686C10 10.9789 10 11.4503 10 12.3931V20.8931C10 21.8359 10 22.3073 10.2929 22.6002C10.5858 22.8931 11.0572 22.8931 12 22.8931H12.5C13.4428 22.8931 13.9142 22.8931 14.2071 22.6002C14.5 22.3073 14.5 21.8359 14.5 20.8931L14.5001 17.3932C14.5001 15.7364 15.0281 14.3932 16.5879 14.3932C17.3677 14.3932 18 15.0648 18 15.8932V20.3932C18 21.336 18 21.8074 18.2929 22.1003C18.5857 22.3932 19.0572 22.3932 20 22.3932H20.4987C21.4413 22.3932 21.9126 22.3932 22.2055 22.1004C22.4984 21.8076 22.4985 21.3363 22.4987 20.3937L22.5001 14.8933C22.5001 12.4081 20.1364 10.3933 17.7968 10.3933C16.4649 10.3933 15.2767 11.0462 14.5001 12.0671C14.5 11.437 14.5 11.122 14.3632 10.8881C14.2765 10.7399 14.1531 10.6166 14.005 10.5299C13.7711 10.3931 13.4561 10.3931 12.826 10.3931Z" stroke="white" stroke-width="1.5" stroke-linejoin="round"/>
</svg>
