<svg width="32" height="33" viewBox="0 0 32 33" fill="none" xmlns="http://www.w3.org/2000/svg">
<path d="M2.6877 18.1465C2.77486 22.234 2.81845 24.2776 4.32662 25.7916C5.83478 27.3054 7.93378 27.3581 12.1318 27.4636C14.7191 27.5286 17.2809 27.5286 19.8683 27.4636C24.0663 27.3581 26.1652 27.3054 27.6735 25.7916C29.1816 24.2776 29.2252 22.234 29.3123 18.1465C29.3404 16.8322 29.3404 15.5258 29.3123 14.2116C29.2252 10.1242 29.1816 8.08049 27.6735 6.56658C26.1652 5.05268 24.0663 4.99994 19.8683 4.89446C17.2809 4.82945 14.7191 4.82945 12.1318 4.89445C7.93378 4.99992 5.83478 5.05265 4.32661 6.56657C2.81843 8.08048 2.77486 10.1242 2.68769 14.2116C2.65966 15.5258 2.65967 16.8322 2.6877 18.1465Z" fill="#FFDA58"/>
<path d="M2.66667 8.17896L11.884 13.4016C15.2821 15.327 16.7179 15.327 20.116 13.4016L29.3333 8.17896" stroke="#2B2B2B" stroke-width="1.5" stroke-linejoin="round"/>
</svg>
