<svg width="24" height="25" viewBox="0 0 24 25" fill="none" xmlns="http://www.w3.org/2000/svg">
<path d="M2.01577 13.8687C2.08114 16.9343 2.11383 18.467 3.24496 19.6025C4.37608 20.7379 5.95033 20.7774 9.09883 20.8565C11.0393 20.9053 12.9607 20.9053 14.9012 20.8565C18.0497 20.7774 19.6239 20.7379 20.7551 19.6025C21.8862 18.467 21.9189 16.9343 21.9842 13.8687C22.0053 12.883 22.0053 11.9032 21.9842 10.9175C21.9189 7.85193 21.8862 6.31916 20.7551 5.18373C19.6239 4.0483 18.0497 4.00875 14.9012 3.92964C12.9607 3.88088 11.0393 3.88088 9.09882 3.92963C5.95033 4.00873 4.37608 4.04828 3.24495 5.18372C2.11382 6.31915 2.08114 7.85192 2.01576 10.9175C1.99474 11.9032 1.99475 12.883 2.01577 13.8687Z" fill="#FFDA58"/>
<path d="M2 6.39307L8.91302 10.31C11.4616 11.7541 12.5384 11.7541 15.087 10.31L22 6.39307" stroke="#2B2B2B" stroke-width="1.5" stroke-linejoin="round"/>
</svg>
