<svg width="24" height="25" viewBox="0 0 24 25" fill="none" xmlns="http://www.w3.org/2000/svg">
<path d="M12 22.5C17.5228 22.5 22 18.0228 22 12.5C22 6.97715 17.5228 2.5 12 2.5C6.47715 2.5 2 6.97715 2 12.5C2 18.0228 6.47715 22.5 12 22.5Z" stroke="#141B34" stroke-opacity="0.7" stroke-width="1.5"/>
<path d="M15.9453 12.8948C15.7686 13.5215 14.9333 13.9644 13.2629 14.8502C11.648 15.7064 10.8406 16.1346 10.1899 15.9625C9.9209 15.8913 9.6758 15.7562 9.47812 15.5701C9 15.1198 9 14.2465 9 12.5C9 10.7535 9 9.88018 9.47812 9.42995C9.6758 9.24381 9.9209 9.10868 10.1899 9.03753C10.8406 8.86544 11.648 9.29357 13.2629 10.1498C14.9333 11.0356 15.7686 11.4785 15.9453 12.1052C16.0182 12.3639 16.0182 12.6361 15.9453 12.8948Z" stroke="#141B34" stroke-opacity="0.7" stroke-width="1.5" stroke-linejoin="round"/>
</svg>
