<svg width="24" height="25" viewBox="0 0 24 25" fill="none" xmlns="http://www.w3.org/2000/svg">
<path d="M5 9.39307C5 6.09324 5 4.44332 6.02513 3.4182C7.05025 2.39307 8.70017 2.39307 12 2.39307C15.2998 2.39307 16.9497 2.39307 17.9749 3.4182C19 4.44332 19 6.09324 19 9.39307V15.3931C19 18.6929 19 20.3428 17.9749 21.368C16.9497 22.3931 15.2998 22.3931 12 22.3931C8.70017 22.3931 7.05025 22.3931 6.02513 21.368C5 20.3428 5 18.6929 5 15.3931V9.39307Z" fill="#FFDA58"/>
<path d="M11 19.3931H13" stroke="#2B2B2B" stroke-width="1.5" stroke-linecap="round" stroke-linejoin="round"/>
<path d="M9 2.39307L9.089 2.92709C9.28188 4.08436 9.37832 4.663 9.77519 5.01511C10.1892 5.38241 10.7761 5.39307 12 5.39307C13.2239 5.39307 13.8108 5.38241 14.2248 5.01511C14.6217 4.663 14.7181 4.08436 14.911 2.92709L15 2.39307" stroke="#2B2B2B" stroke-width="1.5" stroke-linejoin="round"/>
</svg>
