<svg width="32" height="33" viewBox="0 0 32 33" fill="none" xmlns="http://www.w3.org/2000/svg">
<path d="M6.66667 12.179C6.66667 7.77926 6.66667 5.57937 8.03351 4.21254C9.40034 2.8457 11.6002 2.8457 16 2.8457C20.3997 2.8457 22.5996 2.8457 23.9665 4.21254C25.3333 5.57937 25.3333 7.77926 25.3333 12.179V20.179C25.3333 24.5788 25.3333 26.7786 23.9665 28.1456C22.5996 29.5124 20.3997 29.5124 16 29.5124C11.6002 29.5124 9.40034 29.5124 8.03351 28.1456C6.66667 26.7786 6.66667 24.5788 6.66667 20.179V12.179Z" fill="#FFDA58"/>
<path d="M14.6667 25.5123H17.3333" stroke="#2B2B2B" stroke-width="1.5" stroke-linecap="round" stroke-linejoin="round"/>
<path d="M12 2.8457L12.1187 3.55773C12.3758 5.10076 12.5044 5.87228 13.0336 6.34176C13.5856 6.83149 14.3681 6.8457 16 6.8457C17.6319 6.8457 18.4144 6.83149 18.9664 6.34176C19.4956 5.87228 19.6241 5.10076 19.8813 3.55773L20 2.8457" stroke="#2B2B2B" stroke-width="1.5" stroke-linejoin="round"/>
</svg>
