<svg width="33" height="33" viewBox="0 0 33 33" fill="none" xmlns="http://www.w3.org/2000/svg">
<g clip-path="url(#clip0_225_975)">
<path d="M16.0001 0.290039H16.0025V0.290573C17.5783 0.29084 19.1013 0.518853 20.5388 0.94364C20.7686 1.01146 21.0007 1.08621 21.2343 1.16685C22.4165 1.57588 23.5342 2.11868 24.5693 2.77655C24.6422 2.82274 24.6638 2.91939 24.6179 2.99228C24.6131 2.99949 24.6075 3.0067 24.6019 3.01311L23.457 4.48104C23.4063 4.54619 23.3139 4.56007 23.2466 4.51441L23.2439 4.51281C22.9529 4.33313 22.6523 4.16305 22.3436 4.00312C22.0326 3.84239 21.7165 3.69341 21.3958 3.55751L21.3953 3.55724C19.7383 2.85425 17.915 2.4655 15.9999 2.4655H15.9983V2.46497C14.0903 2.46497 12.2716 2.85238 10.6178 3.5519C10.3476 3.66617 10.0825 3.78846 9.8235 3.91795C8.48666 4.5865 7.27238 5.46678 6.22442 6.51473L6.22336 6.5158L6.21615 6.52247C5.86852 6.87063 5.53932 7.23722 5.23041 7.62062C4.91963 8.00642 4.62834 8.40985 4.35947 8.8285C2.97725 10.9805 2.1752 13.5415 2.1752 16.2899V16.2915H2.17466C2.17466 18.1994 2.56207 20.0182 3.2616 21.672C3.37587 21.9424 3.49815 22.2073 3.62764 22.4663C4.2962 23.8028 5.17647 25.0174 6.22469 26.0653L6.22576 26.0664L6.23163 26.0726C6.57979 26.4204 6.94691 26.7499 7.33058 27.0591C7.71639 27.3701 8.11981 27.6612 8.53873 27.93C10.6907 29.3123 13.252 30.1143 16.0001 30.1143H16.0017V30.1151C17.9102 30.1148 19.7284 29.7277 21.3822 29.0282C21.6527 28.9139 21.9175 28.7916 22.1765 28.6621C23.5133 27.9936 24.7279 27.1133 25.7756 26.0653L25.7769 26.064L25.7849 26.0563C26.132 25.7084 26.4609 25.3423 26.7696 24.9595C27.0806 24.5737 27.3717 24.17 27.6405 23.7513C29.023 21.5993 29.8248 19.0383 29.8248 16.2902V16.2875H29.8256C29.8253 15.1344 29.6836 14.0124 29.4163 12.9402C29.372 12.7616 29.3253 12.5883 29.2767 12.4206C29.0198 11.5377 28.6767 10.6908 28.2583 9.89007C28.222 9.82091 28.2429 9.73708 28.3043 9.69222L29.7837 8.52252C29.851 8.46912 29.949 8.48061 30.0021 8.54815C30.0069 8.55403 30.0109 8.56044 30.0144 8.56684H30.0149L30.016 8.56898L30.0176 8.57218C30.1941 8.89204 30.3609 9.21964 30.516 9.55365C30.6714 9.88793 30.8153 10.2278 30.9472 10.572C31.6273 12.348 32 14.2762 32 16.2904V16.292H31.9995C31.9992 18.5003 31.5512 20.6051 30.7417 22.5186C30.6106 22.8291 30.4691 23.1359 30.3177 23.4379C29.5426 24.9878 28.5243 26.3932 27.3137 27.604L27.3127 27.6051L27.3068 27.6104C26.9031 28.0139 26.4778 28.3954 26.033 28.754C25.5863 29.1141 25.1196 29.4506 24.6355 29.7616C22.1445 31.3614 19.18 32.2903 15.9999 32.2903H15.9983V32.2898C13.79 32.2895 11.6852 31.8415 9.7717 31.032C9.46119 30.9009 9.15441 30.7591 8.85218 30.6077C7.30255 29.8329 5.89682 28.8143 4.68601 27.604L4.68494 27.6027L4.67746 27.595C4.27484 27.1918 3.89384 26.7673 3.53607 26.3233C3.17616 25.8766 2.83948 25.4099 2.5287 24.9258C0.928871 22.4342 0 19.4701 0 16.2902V16.2883H0.000533987C0.000800981 14.08 0.448816 11.9756 1.25807 10.0617C1.38944 9.75123 1.53094 9.44472 1.68233 9.14222C2.45714 7.59258 3.47572 6.18713 4.68601 4.97631L4.68708 4.97524L4.69402 4.9691C5.09718 4.56621 5.5225 4.18468 5.96651 3.82664C6.41346 3.46673 6.87989 3.13005 7.36422 2.81927C9.85607 1.21864 12.8202 0.290039 16.0001 0.290039ZM24.8483 4.64177L29.3258 0.363462L29.624 3.24886L32.8082 3.64695L28.0135 8.29291L25.6805 8.49315L16.371 17.1518L15.5131 16.413L24.3311 7.20171L24.8483 4.64177ZM16.0001 11.2256H16.0041V11.2261C16.3053 11.2264 16.5985 11.2523 16.8807 11.3019C16.9135 11.3078 16.96 11.3166 17.0187 11.3286H17.0195C17.2545 11.3767 17.4846 11.4416 17.7081 11.5217C17.7893 11.5505 17.8314 11.6397 17.8023 11.7208C17.7967 11.7369 17.7882 11.7513 17.7783 11.7641L17.7786 11.7644L16.5288 13.3674C16.4938 13.4125 16.4383 13.4325 16.3851 13.4256V13.4261L16.3779 13.4251L16.3224 13.4187L16.3176 13.4179L16.2695 13.4128L16.2655 13.4122C16.1822 13.405 16.0938 13.401 16.0001 13.401H15.9985V13.4002C15.6004 13.4005 15.2202 13.4817 14.8748 13.628C14.8176 13.6523 14.7621 13.6779 14.709 13.7043C14.4307 13.8434 14.1771 14.0274 13.9574 14.2471L13.9563 14.2482L13.9491 14.2546C13.8786 14.3256 13.8119 14.4007 13.7488 14.4789C13.684 14.5593 13.6231 14.6439 13.5668 14.7315C13.2784 15.1805 13.1113 15.7159 13.1113 16.2899V16.2915H13.1105C13.1107 16.6901 13.1919 17.0701 13.3382 17.4153C13.3625 17.4727 13.3881 17.5282 13.4146 17.5811C13.5537 17.8596 13.7379 18.1129 13.9574 18.3324L13.9584 18.3337L13.9648 18.3404C14.0359 18.4109 14.1109 18.4782 14.1891 18.5409C14.2695 18.6058 14.3541 18.667 14.4417 18.7233C14.891 19.0114 15.4264 19.1788 16.0001 19.1788H16.0017V19.1793C16.4004 19.1793 16.7806 19.0981 17.1255 18.9518C17.1829 18.9275 17.2382 18.9019 17.2913 18.8755C17.5698 18.7361 17.8232 18.5521 18.0426 18.3324L18.044 18.3311L18.0493 18.326C18.0883 18.2868 18.1262 18.247 18.1612 18.2077C18.1962 18.1685 18.2327 18.1244 18.2701 18.0769C18.4511 17.8473 18.5982 17.5899 18.7029 17.313C18.7149 17.2807 18.7366 17.2546 18.7635 17.2372L20.7831 15.64C20.8506 15.5866 20.9483 15.5981 21.0017 15.6657C21.0204 15.6894 21.0308 15.7169 21.034 15.745H21.0348L21.0362 15.757L21.0367 15.7653L21.0431 15.832V15.8339H21.0436L21.0495 15.9065V15.9078C21.0589 16.036 21.0642 16.1634 21.0642 16.2899V16.2915H21.0634C21.0631 16.9902 20.9214 17.6561 20.6653 18.2617C20.6242 18.3591 20.5791 18.4563 20.531 18.5527C20.2851 19.0437 19.9631 19.4888 19.5805 19.8711L19.5795 19.8722L19.5709 19.8794C19.4449 20.0049 19.3125 20.1242 19.1744 20.2355C19.0329 20.3493 18.885 20.4561 18.7323 20.5541C17.9436 21.0603 17.0059 21.3542 15.9999 21.3542H15.9983V21.3534C15.2995 21.3532 14.6337 21.2114 14.0284 20.9554C13.9309 20.9142 13.8335 20.8691 13.7374 20.8211C13.2464 20.5752 12.8013 20.2532 12.4189 19.8708L12.4179 19.8698L12.4091 19.8601C12.2841 19.7344 12.1656 19.6022 12.0545 19.4645C11.9405 19.323 11.834 19.1753 11.7357 19.0223C11.2295 18.2339 10.9355 17.2959 10.9355 16.2902V16.2883H10.9361C10.9363 15.5898 11.0784 14.924 11.3342 14.3187C11.3755 14.2212 11.4204 14.1241 11.4684 14.0277C11.7138 13.5375 12.0358 13.0927 12.4187 12.7098L12.4189 12.7095L12.4187 12.7093L12.4197 12.7082C12.5466 12.5816 12.6819 12.4601 12.825 12.3448C12.9666 12.2308 13.1142 12.1243 13.2672 12.026C14.0564 11.5195 14.9946 11.2256 16.0001 11.2256ZM16.2653 13.4122C16.1833 13.4021 16.1235 13.3295 16.1286 13.2472L16.2653 13.4122ZM16.0001 5.71268H16.0028V5.71322C16.949 5.71348 17.8656 5.8379 18.7363 6.07045C18.8781 6.10837 19.019 6.14922 19.1587 6.193C19.8755 6.41674 20.5607 6.71578 21.2041 7.08022C21.2789 7.12268 21.3053 7.21799 21.2628 7.29275C21.2588 7.29916 21.2548 7.30583 21.25 7.31171L21.2492 7.31251L20.0894 8.8002C20.0408 8.86214 19.9546 8.87763 19.8884 8.83945L19.8846 8.83758C19.7276 8.75561 19.564 8.67631 19.3939 8.60155C19.2227 8.52599 19.0508 8.45658 18.8783 8.39357C17.9815 8.06623 17.0118 7.88761 15.9999 7.88761H15.9983V7.88708C14.8387 7.88708 13.7336 8.12283 12.7284 8.54789C12.5698 8.61517 12.4085 8.68966 12.2457 8.77083L12.2334 8.77643C11.4263 9.182 10.6926 9.71465 10.0585 10.3485L10.0574 10.3496L10.0512 10.3557C9.84112 10.5664 9.64168 10.789 9.45451 11.0213C9.26575 11.2557 9.08873 11.5011 8.92533 11.7556C8.08564 13.0633 7.59837 14.6199 7.59837 16.2899V16.2915H7.59784C7.59784 17.4511 7.8336 18.5564 8.25865 19.5614C8.32807 19.7258 8.40256 19.8871 8.48106 20.0441C8.88715 20.856 9.42221 21.594 10.0593 22.2311L10.0603 22.2321C10.2745 22.4465 10.499 22.6484 10.7318 22.8358C10.9662 23.0246 11.2116 23.2016 11.466 23.365C12.7738 24.2049 14.3306 24.6919 16.0004 24.6919H16.002V24.6925C17.1616 24.6925 18.2669 24.457 19.2721 24.0319C19.4366 23.9622 19.5979 23.888 19.7549 23.8092C20.5668 23.4032 21.3048 22.8684 21.9418 22.2311L21.9429 22.23C22.1573 22.0156 22.3591 21.7913 22.5466 21.5585C22.7353 21.3238 22.9123 21.0787 23.0757 20.824C23.916 19.516 24.4032 17.9594 24.4032 16.2899H24.4027V16.2859H24.4032C24.4032 15.7677 24.3557 15.2593 24.2655 14.7664C24.2518 14.6927 24.2358 14.6121 24.2174 14.5264C24.1301 14.1166 24.0129 13.719 23.8695 13.3367C23.8439 13.2681 23.8695 13.1928 23.9274 13.1533L25.4394 11.9577C25.507 11.9043 25.6047 11.9157 25.6578 11.9833C25.6658 11.9937 25.6722 12.0041 25.6773 12.0153L25.6787 12.018L25.6797 12.0201L25.68 12.0199C25.7588 12.1985 25.8346 12.3843 25.9069 12.5768C25.9782 12.7669 26.0439 12.9578 26.1029 13.149C26.4113 14.1419 26.5776 15.1968 26.5776 16.2896V16.2912H26.5768C26.5768 17.7509 26.2807 19.1422 25.7457 20.4069C25.6592 20.6117 25.5652 20.8146 25.4651 21.0149C24.9527 22.0396 24.2796 22.9688 23.4794 23.7687L23.4781 23.7697L23.4722 23.7753C23.2058 24.041 22.9254 24.293 22.6323 24.5293C22.337 24.7675 22.0283 24.9899 21.7085 25.1952C20.0611 26.253 18.1016 26.8669 15.9999 26.8669H15.9983C14.5386 26.8666 13.1473 26.5705 11.8823 26.0354C11.6775 25.9487 11.4746 25.855 11.2743 25.7548C10.2499 25.2422 9.32048 24.5694 8.5203 23.7692L8.51924 23.7681L8.51176 23.7601C8.24664 23.4945 7.99539 23.2147 7.75991 22.922C7.52175 22.6267 7.29934 22.3181 7.09376 21.9982C6.03593 20.3511 5.42211 18.3914 5.42211 16.2899V16.2883H5.42264C5.42291 14.8286 5.71927 13.4373 6.25433 12.1723C6.34083 11.9675 6.43455 11.7646 6.53467 11.5644C7.04677 10.5405 7.71986 9.61159 8.52004 8.81114L8.5203 8.81088L8.52004 8.81061L8.5211 8.80954L8.52805 8.80313C8.79397 8.53748 9.07432 8.28597 9.36694 8.05021C9.6625 7.81205 9.97088 7.58965 10.2907 7.38433C11.9386 6.3265 13.8986 5.71268 16.0001 5.71268Z" fill="#FFDA58"/>
</g>
<defs>
<clipPath id="clip0_225_975">
<rect width="32.8082" height="32" fill="white" transform="translate(0 0.290039)"/>
</clipPath>
</defs>
</svg>
