<svg width="30" height="24" viewBox="0 0 30 24" fill="none" xmlns="http://www.w3.org/2000/svg">
<path d="M27.9158 14.1999C27.8608 15.1282 27.0225 15.4293 26.1901 14.8263C25.3577 14.2234 24.7123 13.216 24.232 12.5C23.1043 10.8191 22.2477 8.96196 21.1447 7.2695C20.0147 5.53556 18.7875 3.56866 17.1692 2.12707C16.6399 1.65545 15.6182 1.97783 15.6912 2.75057C15.7659 3.54048 15.8861 4.50602 16.1833 5.26461C16.936 7.18532 17.5773 8.94552 18.3109 10.8704C19.3871 13.6942 20.9745 16.9443 20.4118 19.782C20.3124 20.2836 19.948 21.598 19.171 21.5797C18.6986 21.5685 18.1649 21.1454 17.8538 20.8393C16.9031 19.9036 16.3578 18.6414 15.8501 17.5126C15.0913 15.8257 14.4347 14.1126 13.74 12.4104C12.73 9.93557 11.6635 7.47592 10.5773 5.02006C10.2598 4.30228 10.1171 3.82093 9.27738 2.56854C8.53474 1.461 6.57249 2.27109 6.69131 3.39129C6.98401 6.1514 7.74074 8.44833 8.1726 9.69915C8.5574 10.8138 8.94273 12.048 9.2096 13.1945C9.39964 14.0109 10.0198 16.3351 9.46714 17.2147C9.01228 17.9388 7.35961 18.0575 7.07097 17.6495C5.34241 15.2061 5.45895 12.0716 2.31363 9.83629" stroke="#FFDA58" stroke-width="3" stroke-linecap="round" stroke-linejoin="round"/>
</svg>
