<svg width="32" height="33" viewBox="0 0 32 33" fill="none" xmlns="http://www.w3.org/2000/svg">
<g clip-path="url(#clip0_225_957)">
<path d="M16 23.9082L6.69312 25.597C7.99699 29.487 11.671 32.2901 16 32.2901C20.329 32.2901 24.003 29.487 25.3069 25.597L16 23.9082Z" fill="#EEA0B6"/>
<path d="M6.69312 6.98315C2.80306 8.28703 0 11.961 0 16.29C0 20.619 2.80306 24.293 6.69312 25.5969L8.38188 16.29L6.69312 6.98315Z" fill="#71CCCE"/>
<path d="M25.3069 6.98315L23.6182 16.29L25.3069 25.5969C29.197 24.293 32 20.619 32 16.29C32 11.961 29.197 8.28703 25.3069 6.98315Z" fill="#EA4820"/>
<path d="M16 0.290039C11.671 0.290039 7.99699 3.0931 6.69312 6.98316L16 8.67191L25.3069 6.9831C24.003 3.0931 20.329 0.290039 16 0.290039Z" fill="#F7AD3F"/>
<path d="M9.81384 6.4762C8.72284 6.4762 7.67359 6.65451 6.69315 6.98307C6.36459 7.96345 6.18628 9.0127 6.18628 10.1038C6.18628 12.4491 7.0094 14.6018 8.38197 16.2899L16.0001 13.1693V8.67188C14.3119 7.29945 12.1591 6.4762 9.81384 6.4762Z" fill="#20AAB0"/>
<path d="M25.3069 6.98319C24.3266 6.65463 23.2773 6.47632 22.1862 6.47632C19.8409 6.47632 17.6881 7.29944 16 8.67201V13.1694L23.6181 16.2901C24.9907 14.6019 25.8138 12.4491 25.8138 10.1039C25.8138 9.01282 25.6354 7.96351 25.3069 6.98319Z" fill="#F76720"/>
<path d="M16 8.67188C14.5721 9.83281 13.4768 11.3867 12.8793 13.1693H19.1206C18.5232 11.3868 17.4278 9.83281 16 8.67188Z" fill="#EA4820"/>
<path d="M16 19.4107L8.38184 16.29C7.00928 17.9782 6.18616 20.131 6.18616 22.4762C6.18616 23.5672 6.36447 24.6165 6.69303 25.5969C7.67341 25.9255 8.72266 26.1038 9.81372 26.1038C12.159 26.1038 14.3118 25.2807 15.9999 23.9081V19.4107H16Z" fill="#DA5B82"/>
<path d="M23.6181 16.29L16 19.4107V23.9082C17.6881 25.2807 19.8409 26.1039 22.1862 26.1039C23.2772 26.1039 24.3264 25.9255 25.3069 25.597C25.6354 24.6166 25.8138 23.5674 25.8138 22.4763C25.8138 20.131 24.9906 17.9782 23.6181 16.29Z" fill="#D92622"/>
<path d="M12.8793 19.4108C13.4767 21.1933 14.572 22.7473 16 23.9082C17.4278 22.7473 18.5232 21.1933 19.1206 19.4108H12.8793Z" fill="#BD0A3A"/>
<path d="M16 12.6625C12.9253 12.6625 10.1813 14.0769 8.38184 16.29C10.1812 18.5032 12.9252 19.9176 16 19.9176C19.0746 19.9176 21.8186 18.5032 23.6181 16.29C21.8186 14.0769 19.0746 12.6625 16 12.6625Z" fill="white"/>
<path d="M16 19.9176C18.0034 19.9176 19.6276 18.2935 19.6276 16.29C19.6276 14.2866 18.0034 12.6625 16 12.6625C13.9966 12.6625 12.3724 14.2866 12.3724 16.29C12.3724 18.2935 13.9966 19.9176 16 19.9176Z" fill="#41BBBE"/>
<path d="M16 17.345C15.4183 17.345 14.9451 16.8717 14.9451 16.29C14.9451 15.7084 15.4183 15.2351 16 15.2351C16.5817 15.2351 17.0549 15.7084 17.0549 16.29C17.0549 16.8717 16.5817 17.345 16 17.345Z" fill="#06484A"/>
</g>
<defs>
<clipPath id="clip0_225_957">
<rect width="32" height="32" fill="white" transform="translate(0 0.290039)"/>
</clipPath>
</defs>
</svg>
